<?xml version="1.0" standalone="no"?>
<!DOCTYPE svg PUBLIC "-//W3C//DTD SVG 20010904//EN"
 "http://www.w3.org/TR/2001/REC-SVG-20010904/DTD/svg10.dtd">
<svg version="1.0" xmlns="http://www.w3.org/2000/svg"
 width="270.000000pt" height="270.000000pt" viewBox="0 0 270.000000 270.000000"
 preserveAspectRatio="xMidYMid meet">
<metadata>
Created by potrace 1.11, written by Peter Selinger 2001-2013
</metadata>
<g transform="translate(0.000000,270.000000) scale(0.100000,-0.100000)"
fill="#000000" stroke="none">
<path d="M2199 2346 c-2 -2 -22 -7 -44 -10 -96 -15 -186 -35 -195 -45 -3 -3
-34 -16 -70 -28 -133 -45 -437 -234 -565 -353 -22 -21 -61 -56 -86 -79 -53
-47 -66 -77 -38 -84 14 -4 51 22 127 84 192 161 337 255 555 361 31 15 185 48
251 53 144 12 268 -50 322 -162 27 -54 29 -66 31 -208 2 -126 -1 -161 -18
-220 -46 -157 -85 -262 -107 -287 -8 -10 -12 -18 -7 -18 4 0 2 -7 -5 -15 -7
-8 -10 -15 -7 -15 14 0 -48 -117 -114 -215 -145 -215 -353 -387 -529 -435 -25
-7 -60 -19 -78 -27 -135 -59 -490 -76 -717 -34 -88 16 -99 19 -141 34 -22 8
-65 20 -95 26 -117 25 -330 171 -399 273 -54 81 -80 167 -76 248 3 62 26 137
38 125 3 -3 8 5 12 19 9 35 89 102 155 128 49 20 73 23 196 23 139 0 141 0
264 -43 178 -62 193 -78 136 -142 -12 -14 -40 -52 -62 -85 -38 -58 -40 -64
-42 -147 -3 -100 15 -152 68 -206 34 -33 71 -43 71 -17 0 8 -10 38 -21 67 -16
39 -22 76 -23 143 -1 79 2 97 27 150 16 33 38 70 49 82 45 48 90 29 360 -156
51 -35 109 -78 129 -95 20 -17 62 -51 94 -76 31 -25 79 -64 107 -88 55 -47 68
-51 85 -23 27 43 64 169 65 221 1 75 -6 105 -46 191 -29 65 -42 80 -97 120
-82 60 -111 74 -189 94 -88 23 -235 13 -332 -21 -41 -14 -73 -7 -203 44 -125
50 -211 64 -376 64 -77 -1 -130 -6 -160 -16 -24 -9 -54 -16 -66 -16 -25 0
-105 -36 -153 -69 -35 -25 -100 -87 -100 -96 0 -3 -11 -22 -24 -43 -14 -20
-30 -57 -36 -82 -7 -25 -17 -51 -22 -57 -7 -9 -7 -13 2 -13 7 0 10 -7 6 -15
-3 -8 -2 -15 2 -15 5 0 7 -15 6 -32 -3 -40 44 -165 89 -236 59 -93 158 -184
272 -250 110 -63 196 -92 400 -138 11 -3 92 -7 180 -9 422 -11 777 122 1057
396 108 107 177 190 248 304 34 55 69 108 78 117 8 9 26 48 39 85 52 140 91
259 96 288 3 17 16 59 30 95 23 61 25 78 24 210 -2 130 -4 150 -25 192 -48 98
-136 157 -262 177 -66 11 -133 14 -141 7z m-615 -951 c67 -27 81 -36 156 -102
64 -57 116 -204 89 -255 -10 -19 -38 -14 -66 11 -27 26 -187 154 -212 171 -13
8 -32 23 -43 32 -11 10 -44 32 -72 49 -101 63 -126 82 -126 96 0 41 170 40
274 -2z"/>
</g>
</svg>
